<svg xmlns="http://www.w3.org/2000/svg" width="240.646" height="32.007" viewBox="0 0 240.646 32.007">
  <g id="KinderCubby_Logo" transform="translate(0.01 0.111)">
    <path id="Path_14473" data-name="Path 14473" d="M60.28,36.91h4.742v9.733h.095c.474-.842.984-1.624,1.47-2.371l4.848-7.314h5.927L70.25,46.334l7.468,12.649h-5.56L66.919,49.5,65.069,51.87v7.184H60.327Z" transform="translate(-18.029 -33.321)" fill="#707070"/>
    <path id="Path_14474" data-name="Path 14474" d="M81.59,36.91V58.936H76.73V36.91Z" transform="translate(-14.996 -33.321)" fill="#707070"/>
    <path id="Path_14475" data-name="Path 14475" d="M84.36,58.936V36.91h5.655l4.445,8.073a66.124,66.124,0,0,1,3.556,7.551h.095a83.677,83.677,0,0,1-.415-9.187V36.91h4.445V58.936H96.973l-4.564-8.5a81.137,81.137,0,0,1-3.734-7.777H88.58c.13,2.9.19,6.01.19,9.6V58.9Z" transform="translate(-13.595 -33.321)" fill="#707070"/>
    <path id="Path_14476" data-name="Path 14476" d="M102.859,37.233a41.622,41.622,0,0,1,6.544-.462c4.054,0,6.7.747,8.76,2.371s3.556,4.422,3.556,8.3c0,4.208-1.482,7.113-3.556,8.926-2.252,1.92-5.678,2.833-9.875,2.833a40.306,40.306,0,0,1-5.489-.32Zm4.92,17.971a8.891,8.891,0,0,0,1.683.095c4.374,0,7.231-2.454,7.231-7.705,0-4.576-2.572-6.994-6.733-6.994a9.934,9.934,0,0,0-2.181.19Z" transform="translate(-10.2 -33.347)" fill="#707070"/>
    <path id="Path_14477" data-name="Path 14477" d="M134.234,49.618H126.35V54.8h8.784v4.09H121.49V36.91h13.218v4.078h-8.3v4.576h7.883Z" transform="translate(-6.756 -33.321)" fill="#707070"/>
    <path id="Path_14478" data-name="Path 14478" d="M135.8,37.232a41.337,41.337,0,0,1,6.449-.462c3.177,0,5.394.486,6.923,1.731a5.666,5.666,0,0,1,1.968,4.611,5.844,5.844,0,0,1-3.782,5.429v.095c1.494.616,2.371,2.086,2.857,4.114.664,2.489,1.34,5.358,1.754,6.212h-4.955a26.909,26.909,0,0,1-1.494-5.133c-.581-2.738-1.494-3.5-3.462-3.556h-1.47v8.666h-4.742Zm4.742,9.484h1.909c2.371,0,3.841-1.185,3.841-3.165s-1.328-3.047-3.556-3.07a12.8,12.8,0,0,0-2.193.154Z" transform="translate(-4.122 -33.347)" fill="#707070"/>
    <path id="Path_14479" data-name="Path 14479" d="M165.93,58.343a13.988,13.988,0,0,1-5.583.984c-5.56,0-9.116-3.556-9.116-9.258a13.408,13.408,0,0,1,5.014-10.847,12.649,12.649,0,0,1,7.978-2.62,9.211,9.211,0,0,1,4.671,1.019l-1.079,3.07a9.069,9.069,0,0,0-4.042-.782,8.3,8.3,0,0,0-5.465,2.027,10.325,10.325,0,0,0-3.082,7.682c0,3.687,1.849,6.473,6.07,6.473a10.219,10.219,0,0,0,4.291-.854Z" transform="translate(-1.283 -33.38)" fill="#707070"/>
    <path id="Path_14480" data-name="Path 14480" d="M173.357,36.91l-2.371,12.838a13.6,13.6,0,0,0-.261,2.679,3.343,3.343,0,0,0,3.556,3.663c2.632,0,4.445-1.826,5.263-6.307l2.371-12.874h3.722l-2.371,12.815c-1.185,6.627-4.22,9.567-9.484,9.567-4.042,0-6.733-2.158-6.733-6.793a19.421,19.421,0,0,1,.285-3.035l2.312-12.554Z" transform="translate(1.63 -33.321)" fill="#707070"/>
    <path id="Path_14481" data-name="Path 14481" d="M186.969,37.295a24.135,24.135,0,0,1,5.145-.522,8.3,8.3,0,0,1,5.109,1.34,4.315,4.315,0,0,1,2.063,3.758,5.655,5.655,0,0,1-4.434,5.323V47.3a4.742,4.742,0,0,1,3.438,4.837,6.224,6.224,0,0,1-2.762,5.157c-1.79,1.316-4.327,1.8-7.563,1.8a30.441,30.441,0,0,1-4.955-.32Zm.166,18.718a16.977,16.977,0,0,0,1.968.095c2.762,0,5.3-1.185,5.3-4.078,0-2.371-1.932-3.236-4.2-3.236h-1.743Zm1.9-10.029h1.719c2.762,0,4.742-1.34,4.742-3.556,0-1.79-1.363-2.572-3.4-2.572a9.591,9.591,0,0,0-1.968.154Z" transform="translate(4.57 -33.35)" fill="#707070"/>
    <path id="Path_14482" data-name="Path 14482" d="M201.788,37.295a23.97,23.97,0,0,1,5.145-.522,8.357,8.357,0,0,1,5.145,1.34,4.339,4.339,0,0,1,2.063,3.758,5.666,5.666,0,0,1-4.445,5.323V47.3a4.742,4.742,0,0,1,3.426,4.837,6.224,6.224,0,0,1-2.762,5.157c-1.778,1.316-4.315,1.8-7.563,1.8a30.442,30.442,0,0,1-4.955-.32Zm.154,18.718a17.106,17.106,0,0,0,1.968.095c2.762,0,5.311-1.185,5.311-4.078,0-2.371-1.944-3.236-4.2-3.236h-1.743Zm1.909-10.029h1.707c2.774,0,4.742-1.34,4.742-3.556,0-1.79-1.363-2.572-3.39-2.572a9.484,9.484,0,0,0-1.968.154Z" transform="translate(7.28 -33.35)" fill="#707070"/>
    <path id="Path_14483" data-name="Path 14483" d="M215.932,58.936l1.719-9.057L213.49,36.91h3.948l1.683,6.271c.474,1.9.688,2.881.889,3.853h0c.569-1.043,1.268-2.288,2.217-3.912l3.853-6.212h4.374L221.3,49.82l-1.683,9.116Z" transform="translate(10.182 -33.321)" fill="#707070"/>
    <path id="Path_14484" data-name="Path 14484" d="M47.848,65.794h-.782a16.419,16.419,0,0,1-7.67-2.432,17.346,17.346,0,0,1-2.8-2.172c-.711-.685-1.446-1.358-2.181-2.019l-1.268-1.181-1.932-1.877-1.185-1.181-1.6-1.523-2.442-2.29-.581-.543-.237-.212-.581-.519,2.525-2.479,2.371-2.361,3.426-3.235.474-.437c.759-.708,1.506-1.417,2.276-2.113l.569-.5A28.889,28.889,0,0,1,38.6,36.777a16.293,16.293,0,0,1,4.872-2.361,15.936,15.936,0,0,1,10.183.449A15.7,15.7,0,0,1,58.4,37.686a14.444,14.444,0,0,1,2.81,3.211l.332.519-7.705,4.545-.308-.413A7.659,7.659,0,0,0,46.414,42.3a7.23,7.23,0,0,0-4.742,2.361,7.544,7.544,0,0,0-.166,10.27,7.63,7.63,0,0,0,11.854-.543l.308-.4L61.4,58.439l-.616.85c-.154.224-.308.437-.474.637a16.363,16.363,0,0,1-4.185,3.624,16.1,16.1,0,0,1-6,2.1A14.76,14.76,0,0,1,47.848,65.794ZM26.261,49.845l.51.472,2.442,2.29,1.648,1.5,1.185,1.11c.64.614,1.28,1.181,1.92,1.818l1.268,1.181,2.193,2.042a16.737,16.737,0,0,0,2.608,2.113,14.921,14.921,0,0,0,7.113,2.255,12.486,12.486,0,0,0,2.821-.189,14.822,14.822,0,0,0,9.484-5.3,4.5,4.5,0,0,0,.285-.378l-5.714-3.294A8.774,8.774,0,1,1,40.925,43.8a8.406,8.406,0,0,1,5.417-2.68,8.694,8.694,0,0,1,7.788,3.294l5.714-3.294a13.458,13.458,0,0,0-2.252-2.361,14.652,14.652,0,0,0-4.362-2.621,14.975,14.975,0,0,0-13.929,1.7A27.619,27.619,0,0,0,37.085,39.7l-.569.508c-.771.685-1.517,1.381-2.252,2.078l-.474.449-3.438,3.223L27.98,48.322Z" transform="translate(-24.6 -33.9)" fill="#707070"/>
    <path id="Path_14485" data-name="Path 14485" d="M38.935,62.951H24.84V49.65l.972.842-.379.45.462-.367.533.486Zm-12.91-1.185H35.9l-9.875-9.484Z" transform="translate(-24.554 -31.092)" fill="#707070"/>
    <path id="Path_14486" data-name="Path 14486" d="M24.85,46.665V34.122L25.289,34c.51-.13,11.558-.107,12.2,0l1.185.119-.889.972-.225.237-.474.439-.557.522-4.386,4.1-3.426,3.248-2.5,2.288-.462.427Zm1.185-11.523v9.4l1.885-1.766,3.414-3.236L35.7,35.379l.3-.273c-2.667-.036-8.263-.012-9.993.095Z" transform="translate(-24.552 -33.877)" fill="#707070"/>
  </g>
</svg>
